<svg width="48" height="48" viewBox="0 0 48 48" fill="none" xmlns="http://www.w3.org/2000/svg">
<path d="M40.6876 34.3125H37.3923C37.1673 34.3125 36.9563 34.4109 36.8157 34.5844C36.4876 34.9828 36.136 35.3672 35.7657 35.7328C34.2512 37.2489 32.4571 38.4572 30.4829 39.2906C28.4375 40.1545 26.2391 40.5977 24.0188 40.5938C21.7735 40.5938 19.5985 40.1531 17.5548 39.2906C15.5805 38.4572 13.7865 37.2489 12.2719 35.7328C10.7547 34.2219 9.54485 32.431 8.70944 30.4594C7.84225 28.4156 7.40632 26.2453 7.40632 24C7.40632 21.7547 7.84694 19.5844 8.70944 17.5406C9.54382 15.5672 10.7438 13.7906 12.2719 12.2672C13.8001 10.7438 15.5766 9.54376 17.5548 8.70938C19.5985 7.84688 21.7735 7.40626 24.0188 7.40626C26.2641 7.40626 28.4391 7.8422 30.4829 8.70938C32.461 9.54376 34.2376 10.7438 35.7657 12.2672C36.136 12.6375 36.4829 13.0219 36.8157 13.4156C36.9563 13.5891 37.1719 13.6875 37.3923 13.6875H40.6876C40.9829 13.6875 41.1657 13.3594 41.0016 13.1109C37.4063 7.52345 31.1157 3.82501 23.9673 3.84376C12.736 3.87188 3.73132 12.9891 3.84382 24.2063C3.95632 35.2453 12.9469 44.1563 24.0188 44.1563C31.1485 44.1563 37.411 40.4625 41.0016 34.8891C41.161 34.6406 40.9829 34.3125 40.6876 34.3125ZM44.8548 23.7047L38.2032 18.4547C37.9548 18.2578 37.5938 18.4359 37.5938 18.75V22.3125H22.8751C22.6688 22.3125 22.5001 22.4813 22.5001 22.6875V25.3125C22.5001 25.5188 22.6688 25.6875 22.8751 25.6875H37.5938V29.25C37.5938 29.5641 37.9594 29.7422 38.2032 29.5453L44.8548 24.2953C44.8996 24.2602 44.9358 24.2154 44.9608 24.1643C44.9857 24.1131 44.9986 24.0569 44.9986 24C44.9986 23.9431 44.9857 23.8869 44.9608 23.8358C44.9358 23.7846 44.8996 23.7398 44.8548 23.7047Z" fill="white"/>
</svg>
