<svg width="42" height="41" viewBox="0 0 42 41" fill="none" xmlns="http://www.w3.org/2000/svg">
<path d="M19.0422 22.6431C18.6983 22.2998 18.2883 22.0296 17.8371 21.849L3.56478 16.1256C3.39437 16.0573 3.24896 15.9384 3.14806 15.785C3.04715 15.6316 2.99559 15.451 3.0003 15.2674C3.005 15.0839 3.06574 14.9062 3.17436 14.7581C3.28298 14.6101 3.43429 14.4988 3.60798 14.4392L37.804 2.74059C37.9635 2.68299 38.1361 2.672 38.3016 2.7089C38.4671 2.7458 38.6186 2.82907 38.7385 2.94897C38.8584 3.06886 38.9417 3.22042 38.9786 3.38591C39.0155 3.55141 39.0045 3.72398 38.9469 3.88346L27.2483 38.0795C27.1887 38.2532 27.0774 38.4045 26.9294 38.5131C26.7813 38.6218 26.6036 38.6825 26.4201 38.6872C26.2365 38.6919 26.0559 38.6403 25.9025 38.5394C25.7491 38.4385 25.6302 38.2931 25.5619 38.1227L19.8385 23.8468C19.6571 23.3959 19.3862 22.9865 19.0422 22.6431ZM19.0422 22.6431L38.7327 2.95656" stroke="#FF5100" stroke-width="4.26087" stroke-linecap="round" stroke-linejoin="round"/>
</svg>
