<svg width="36" height="34" viewBox="0 0 36 34" fill="none" xmlns="http://www.w3.org/2000/svg">
<path d="M22.881 12.3542C23.7761 12.3542 24.6346 12.7098 25.2675 13.3427C25.9004 13.9756 26.256 14.8341 26.256 15.7292V25.1027C26.256 27.2911 25.3866 29.3899 23.8392 30.9374C22.2917 32.4848 20.1929 33.3542 18.0045 33.3542C15.8161 33.3542 13.7173 32.4848 12.1698 30.9374C10.6224 29.3899 9.753 27.2911 9.753 25.1027V15.7292C9.753 14.8341 10.1086 13.9756 10.7415 13.3427C11.3745 12.7098 12.2329 12.3542 13.128 12.3542H22.881ZM22.881 14.6042H13.128C12.8296 14.6042 12.5435 14.7227 12.3325 14.9337C12.1215 15.1447 12.003 15.4308 12.003 15.7292V25.1027C12.003 26.6944 12.6353 28.2209 13.7608 29.3464C14.8863 30.4719 16.4128 31.1042 18.0045 31.1042C19.5962 31.1042 21.1227 30.4719 22.2482 29.3464C23.3737 28.2209 24.006 26.6944 24.006 25.1027V15.7292C24.006 15.4308 23.8875 15.1447 23.6765 14.9337C23.4655 14.7227 23.1794 14.6042 22.881 14.6042ZM3.375 12.3542H9.609C9.0066 12.9811 8.5834 13.7581 8.3835 14.6042H3.375C3.07663 14.6042 2.79048 14.7227 2.57951 14.9337C2.36853 15.1447 2.25 15.4308 2.25 15.7292V23.6027C2.24941 24.3555 2.43767 25.0964 2.79755 25.7575C3.15743 26.4187 3.67742 26.979 4.30992 27.3872C4.94242 27.7954 5.66721 28.0384 6.41793 28.094C7.16865 28.1495 7.92131 28.0158 8.607 27.7052C8.8065 28.4402 9.093 29.1392 9.453 29.7932C8.42533 30.2423 7.30195 30.4283 6.18437 30.3343C5.0668 30.2403 3.99025 29.8693 3.05201 29.2549C2.11377 28.6405 1.34342 27.802 0.810554 26.8151C0.277691 25.8283 -0.000884127 24.7242 2.10794e-06 23.6027V15.7292C2.10794e-06 14.8341 0.355581 13.9756 0.988517 13.3427C1.62145 12.7098 2.4799 12.3542 3.375 12.3542ZM32.625 12.3542C33.5201 12.3542 34.3785 12.7098 35.0115 13.3427C35.6444 13.9756 36 14.8341 36 15.7292V23.6042C36.0005 24.7249 35.7218 25.8282 35.1893 26.8143C34.6567 27.8004 33.887 28.6384 32.9496 29.2527C32.0122 29.867 30.9366 30.2382 29.8199 30.3328C28.7031 30.4274 27.5804 30.2425 26.553 29.7947L26.637 29.6417C26.958 29.0327 27.2175 28.3862 27.4035 27.7082C28.0888 28.0166 28.8405 28.1484 29.5899 28.0916C30.3393 28.0349 31.0625 27.7913 31.6936 27.3832C32.3246 26.9752 32.8434 26.4155 33.2027 25.7554C33.5619 25.0953 33.75 24.3557 33.75 23.6042V15.7292C33.75 15.4311 33.6317 15.1452 33.421 14.9342C33.2104 14.7233 32.9246 14.6046 32.6265 14.6042H27.627C27.4267 13.7579 27.0029 12.9809 26.4 12.3542H32.625ZM18 0.354187C18.6894 0.354187 19.3721 0.489982 20.0091 0.753819C20.646 1.01766 21.2248 1.40437 21.7123 1.89188C22.1998 2.37938 22.5865 2.95814 22.8504 3.5951C23.1142 4.23206 23.25 4.91475 23.25 5.60419C23.25 6.29363 23.1142 6.97632 22.8504 7.61328C22.5865 8.25023 22.1998 8.82899 21.7123 9.3165C21.2248 9.804 20.646 10.1907 20.0091 10.4546C19.3721 10.7184 18.6894 10.8542 18 10.8542C16.6076 10.8542 15.2723 10.3011 14.2877 9.3165C13.3031 8.33193 12.75 6.99657 12.75 5.60419C12.75 4.2118 13.3031 2.87644 14.2877 1.89188C15.2723 0.907311 16.6076 0.354187 18 0.354187ZM30.0045 1.85419C30.5954 1.85419 31.1806 1.97058 31.7266 2.19673C32.2725 2.42288 32.7686 2.75434 33.1865 3.17221C33.6043 3.59007 33.9358 4.08615 34.162 4.63211C34.3881 5.17808 34.5045 5.76324 34.5045 6.35419C34.5045 6.94514 34.3881 7.5303 34.162 8.07626C33.9358 8.62223 33.6043 9.1183 33.1865 9.53617C32.7686 9.95403 32.2725 10.2855 31.7266 10.5116C31.1806 10.7378 30.5954 10.8542 30.0045 10.8542C28.811 10.8542 27.6664 10.3801 26.8225 9.53617C25.9786 8.69225 25.5045 7.54766 25.5045 6.35419C25.5045 5.16071 25.9786 4.01612 26.8225 3.17221C27.6664 2.32829 28.811 1.85419 30.0045 1.85419ZM5.9955 1.85419C6.58645 1.85419 7.17161 1.97058 7.71758 2.19673C8.26354 2.42288 8.75962 2.75434 9.17748 3.17221C9.59535 3.59007 9.92681 4.08615 10.153 4.63211C10.3791 5.17808 10.4955 5.76324 10.4955 6.35419C10.4955 6.94514 10.3791 7.5303 10.153 8.07626C9.92681 8.62223 9.59535 9.1183 9.17748 9.53617C8.75962 9.95403 8.26354 10.2855 7.71758 10.5116C7.17161 10.7378 6.58645 10.8542 5.9955 10.8542C4.80203 10.8542 3.65743 10.3801 2.81352 9.53617C1.96961 8.69225 1.4955 7.54766 1.4955 6.35419C1.4955 5.16071 1.96961 4.01612 2.81352 3.17221C3.65743 2.32829 4.80203 1.85419 5.9955 1.85419ZM18 2.60419C17.2044 2.60419 16.4413 2.92026 15.8787 3.48287C15.3161 4.04548 15 4.80854 15 5.60419C15 6.39984 15.3161 7.1629 15.8787 7.72551C16.4413 8.28812 17.2044 8.60419 18 8.60419C18.7957 8.60419 19.5587 8.28812 20.1213 7.72551C20.6839 7.1629 21 6.39984 21 5.60419C21 4.80854 20.6839 4.04548 20.1213 3.48287C19.5587 2.92026 18.7957 2.60419 18 2.60419ZM30.0045 4.10419C29.709 4.10419 29.4164 4.16238 29.1435 4.27546C28.8705 4.38853 28.6224 4.55426 28.4135 4.7632C28.2046 4.97213 28.0388 5.22017 27.9258 5.49315C27.8127 5.76613 27.7545 6.05871 27.7545 6.35419C27.7545 6.64966 27.8127 6.94224 27.9258 7.21522C28.0388 7.48821 28.2046 7.73625 28.4135 7.94518C28.6224 8.15411 28.8705 8.31984 29.1435 8.43292C29.4164 8.54599 29.709 8.60419 30.0045 8.60419C30.6012 8.60419 31.1735 8.36713 31.5955 7.94518C32.0174 7.52322 32.2545 6.95092 32.2545 6.35419C32.2545 5.75745 32.0174 5.18515 31.5955 4.7632C31.1735 4.34124 30.6012 4.10419 30.0045 4.10419ZM5.9955 4.10419C5.70003 4.10419 5.40745 4.16238 5.13446 4.27546C4.86148 4.38853 4.61344 4.55426 4.40451 4.7632C4.19558 4.97213 4.02985 5.22017 3.91677 5.49315C3.8037 5.76613 3.7455 6.05871 3.7455 6.35419C3.7455 6.64966 3.8037 6.94224 3.91677 7.21522C4.02985 7.48821 4.19558 7.73625 4.40451 7.94518C4.61344 8.15411 4.86148 8.31984 5.13446 8.43292C5.40745 8.54599 5.70003 8.60419 5.9955 8.60419C6.59224 8.60419 7.16454 8.36713 7.58649 7.94518C8.00845 7.52322 8.2455 6.95092 8.2455 6.35419C8.2455 5.75745 8.00845 5.18515 7.58649 4.7632C7.16454 4.34124 6.59224 4.10419 5.9955 4.10419Z" fill="#FF5100"/>
</svg>
