<svg width="36" height="41" viewBox="0 0 36 41" fill="none" xmlns="http://www.w3.org/2000/svg">
<path d="M32 4.85419H30V0.854187H26V4.85419H10V0.854187H6V4.85419H4C1.78 4.85419 0.02 6.65419 0.02 8.85419L0 36.8542C0 37.9151 0.421427 38.9325 1.17157 39.6826C1.92172 40.4328 2.93913 40.8542 4 40.8542H32C34.2 40.8542 36 39.0542 36 36.8542V8.85419C36 6.65419 34.2 4.85419 32 4.85419ZM32 36.8542H4V16.8542H32V36.8542ZM32 12.8542H4V8.85419H32V12.8542ZM12 24.8542H8V20.8542H12V24.8542ZM20 24.8542H16V20.8542H20V24.8542ZM28 24.8542H24V20.8542H28V24.8542ZM12 32.8542H8V28.8542H12V32.8542ZM20 32.8542H16V28.8542H20V32.8542ZM28 32.8542H24V28.8542H28V32.8542Z" fill="#FF5100"/>
</svg>
